<?xml version="1.0" encoding="iso-8859-1"?>
<!-- Uploaded to: SVG Repo, www.svgrepo.com, Generator: SVG Repo Mixer Tools -->
<!DOCTYPE svg PUBLIC "-//W3C//DTD SVG 1.1//EN" "http://www.w3.org/Graphics/SVG/1.1/DTD/svg11.dtd">
<svg fill="#000000" height="800px" width="800px" version="1.1" id="Capa_1" xmlns="http://www.w3.org/2000/svg" xmlns:xlink="http://www.w3.org/1999/xlink" 
	 viewBox="0 0 456.482 456.482" xml:space="preserve">
<g>
	<path d="M96.582,228.085c-43.026,0-78.03,35.004-78.03,78.029c0,43.023,35.004,78.025,78.03,78.025h0.002
		c43.024,0,78.027-35.002,78.027-78.025C174.611,263.089,139.607,228.085,96.582,228.085z M96.584,370.14h-0.002
		c-35.306,0-64.03-28.722-64.03-64.025c0-35.306,28.724-64.029,64.03-64.029c35.306,0,64.029,28.724,64.029,64.029
		C160.611,341.418,131.889,370.14,96.584,370.14z"/>
	<path d="M96.58,281.802c-13.406,0-24.313,10.907-24.313,24.314c0,13.402,10.907,24.307,24.313,24.307
		c13.406,0,24.313-10.904,24.313-24.307C120.893,292.709,109.986,281.802,96.58,281.802z"/>
	<path d="M378.453,228.085c-9.499,0-18.604,1.711-27.03,4.833l-23.453-50.632c3.429,2.024,7.422,3.191,11.684,3.191
		c3.866,0,7-3.134,7-7V146.35c0-3.866-3.134-7-7-7c-11.371,0-20.839,8.273-22.719,19.114l-16.609-35.857
		c-1.147-2.474-3.625-4.058-6.352-4.058h-20.88c-3.866,0-7,3.134-7,7s3.134,7,7,7h16.408l10.1,21.804
		c-0.296,0.329-0.566,0.688-0.803,1.082l-67.106,111.859h-8.423c-2.661,0-4.826-2.165-4.826-4.825v-49.828
		c0-20.756-16.886-37.643-37.641-37.643h-54.111V79.343c0-3.866-3.134-7-7-7H7c-3.866,0-7,3.134-7,7v128.843c0,3.866,3.134,7,7,7
		h37.324c-15.788,9.073-29.238,22.222-38.63,38.459c-1.936,3.347-0.792,7.628,2.554,9.564c3.345,1.935,7.628,0.793,9.564-2.555
		c16.224-28.046,46.407-45.469,78.77-45.469c50.139,0,90.93,40.791,90.93,90.931c0,3.866,3.134,7,7,7h72.557
		c2.464,0,4.746-1.295,6.009-3.41l55.475-92.854l10.238,22.104c-22.943,13.602-38.367,38.607-38.367,67.159
		c0,43.023,35.004,78.025,78.03,78.025h0.002c43.024,0,78.027-35.002,78.027-78.025
		C456.482,263.089,421.479,228.085,378.453,228.085z M14,174.999v-58.703h98.692v58.703H93.88H14z M112.692,86.343v15.953H14V86.343
		H112.692z M320.62,202.833l-57.523,96.283h-61.824c-3.615-54.607-49.185-97.931-104.69-97.931c-0.853,0-82.582,0-82.582,0v-12.187
		h166.804c13.036,0,23.641,10.607,23.641,23.643v49.828c0,10.38,8.445,18.825,18.826,18.825h12.387c2.459,0,4.737-1.29,6.003-3.399
		l64.988-108.33l14.861,32.084C321.18,202.006,320.879,202.399,320.62,202.833z M378.455,370.14h-0.002
		c-35.307,0-64.03-28.722-64.03-64.025c0-22.929,12.121-43.07,30.286-54.383l17.025,36.756c-4.672,4.434-7.595,10.693-7.595,17.628
		c0,13.402,10.906,24.307,24.313,24.307c13.405,0,24.312-10.904,24.312-24.307c0-13.406-10.906-24.314-24.312-24.314
		c-1.438,0-2.844,0.133-4.213,0.373l-16.904-36.494c6.616-2.319,13.72-3.596,21.118-3.596c35.306,0,64.029,28.724,64.029,64.029
		C442.482,341.418,413.76,370.14,378.455,370.14z"/>
</g>
</svg>